# xmcd
#
# Track frame offsets:
#	150
#	10592
#	34122
#	46404
#	59241
#	82399
#	96327
#	109858
#	131538
#	141129
#	163587
#	180428
#	205990
#	220216
#	233329
#
# Disc length: 3299 seconds
#
# Revision: 2
# Processed by: cddbd v1.5.2PL0 Copyright (c) Steve Scherf et al.
# Submitted via: EasyCDDAExtractor 12.0.0.1
#
DISCID=d20ce10f
DTITLE=Various Artist - Magic of the Musicals CD3
DYEAR=2003
DGENRE=Musical
TTITLE0=Do Re Me - The Sound of Music
TTITLE1=Willkommen - Cabaret
TTITLE2=Oh, What a Beautiful Morning - Oklahoma!
TTITLE3=Maria - West Side Story
TTITLE4=If I Were a Rich Man - Fiddler on the Roof
TTITLE5=Luck Be A Lady - Guys and Dolls
TTITLE6=You'll Never Walk Alone - Carousel
TTITLE7=Stranger in Paradise - Kismet
TTITLE8=Get Me to the Church on Time - My Fair Lady
TTITLE9=Send in the Clowns - A Little Night Music
TTITLE10=Some Enchanted Evening - South Pacific
TTITLE11=Ol' Man River - Showboat
TTITLE12=Hello Young Lovers - The King and I
TTITLE13=Wunderbar - Kiss Me, Kate
TTITLE14=There's No Business Like Show Business - Annie Get Your Gun
EXTD=
EXTT0=
EXTT1=
EXTT2=
EXTT3=
EXTT4=
EXTT5=
EXTT6=
EXTT7=
EXTT8=
EXTT9=
EXTT10=
EXTT11=
EXTT12=
EXTT13=
EXTT14=
PLAYORDER=
